<svg xmlns="http://www.w3.org/2000/svg" viewBox="0 0 200 120" width="200" height="120">
  <!-- Rows of dots pattern -->
  <!-- Row 1 -->
  <circle cx="30" cy="30" r="3" fill="#9FB7C8"/>
  <circle cx="52" cy="30" r="3" fill="#9FB7C8"/>
  <circle cx="74" cy="30" r="3" fill="#9FB7C8"/>
  <circle cx="96" cy="30" r="3" fill="#9FB7C8"/>
  <circle cx="118" cy="30" r="3" fill="#9FB7C8"/>
  <circle cx="140" cy="30" r="3" fill="#9FB7C8"/>
  <circle cx="162" cy="30" r="3" fill="#9FB7C8"/>
  <circle cx="184" cy="30" r="3" fill="#9FB7C8"/>

  <!-- Row 2 -->
  <circle cx="40" cy="60" r="3" fill="#1E2A45"/>
  <circle cx="62" cy="60" r="3" fill="#1E2A45"/>
  <circle cx="84" cy="60" r="3" fill="#1E2A45"/>
  <circle cx="106" cy="60" r="3" fill="#1E2A45"/>
  <circle cx="128" cy="60" r="3" fill="#1E2A45"/>
  <circle cx="150" cy="60" r="3" fill="#1E2A45"/>
  <circle cx="172" cy="60" r="3" fill="#1E2A45"/>

  <!-- Row 3 -->
  <circle cx="30" cy="90" r="3" fill="#184A5A"/>
  <circle cx="52" cy="90" r="3" fill="#184A5A"/>
  <circle cx="74" cy="90" r="3" fill="#184A5A"/>
  <circle cx="96" cy="90" r="3" fill="#184A5A"/>
  <circle cx="118" cy="90" r="3" fill="#184A5A"/>
  <circle cx="140" cy="90" r="3" fill="#184A5A"/>
  <circle cx="162" cy="90" r="3" fill="#184A5A"/>
  <circle cx="184" cy="90" r="3" fill="#184A5A"/>
</svg>
