<svg width="800" height="600" viewBox="0 0 800 600" fill="none" xmlns="http://www.w3.org/2000/svg">
  <rect width="800" height="600" fill="#FEFBF8"/>
  <g transform="translate(400, 300)">
    <polygon points="0,-60 52,-30 52,30 0,60 -52,30 -52,-30" stroke="#1E2A45" stroke-width="2.5" fill="none"/>
    <polygon points="104,-60 156,-30 156,30 104,60 52,30 52,-30" stroke="#184A5A" stroke-width="2" fill="none"/>
    <polygon points="-104,-60 -52,-30 -52,30 -104,60 -156,30 -156,-30" stroke="#184A5A" stroke-width="2" fill="none"/>
    <polygon points="52,-120 104,-90 104,-30 52,0 0,-30 0,-90" stroke="#9FB7C8" stroke-width="1.5" fill="none"/>
    <polygon points="-52,-120 0,-90 0,-30 -52,0 -104,-30 -104,-90" stroke="#9FB7C8" stroke-width="1.5" fill="none"/>
    <polygon points="52,60 104,90 104,150 52,180 0,150 0,90" stroke="#9FB7C8" stroke-width="1.5" fill="none"/>
    <polygon points="-52,60 0,90 0,150 -52,180 -104,150 -104,90" stroke="#9FB7C8" stroke-width="1.5" fill="none"/>
  </g>
</svg>
