<svg width="800" height="600" viewBox="0 0 800 600" fill="none" xmlns="http://www.w3.org/2000/svg">
  <rect width="800" height="600" fill="#FEFBF8"/>

  <!-- Winding learning path -->
  <path d="M100 450 Q200 400, 250 350 T350 250 Q400 200, 500 200 T650 250 L700 220"
        stroke="#1E2A45" stroke-width="3" stroke-linecap="round" fill="none"/>

  <!-- Path markers/milestones -->
  <circle cx="100" cy="450" r="15" fill="#9FB7C8"/>
  <circle cx="100" cy="450" r="8" fill="#FEFBF8"/>

  <circle cx="250" cy="350" r="15" fill="#9FB7C8"/>
  <circle cx="250" cy="350" r="8" fill="#FEFBF8"/>

  <circle cx="350" cy="250" r="15" fill="#184A5A"/>
  <circle cx="350" cy="250" r="8" fill="#FEFBF8"/>

  <circle cx="500" cy="200" r="15" fill="#184A5A"/>
  <circle cx="500" cy="200" r="8" fill="#FEFBF8"/>

  <circle cx="650" cy="250" r="15" fill="#1E2A45"/>
  <circle cx="650" cy="250" r="8" fill="#FEFBF8"/>

  <circle cx="700" cy="220" r="18" fill="#1E2A45"/>
  <circle cx="700" cy="220" r="10" fill="#FEFBF8"/>

  <!-- Learning checkpoint pillars -->
  <rect x="90" y="470" width="20" height="6" fill="#9FB7C8"/>
  <rect x="240" y="370" width="20" height="6" fill="#9FB7C8"/>
  <rect x="340" y="270" width="20" height="6" fill="#184A5A"/>
  <rect x="490" y="220" width="20" height="6" fill="#184A5A"/>
  <rect x="640" y="270" width="20" height="6" fill="#1E2A45"/>
  <rect x="690" y="240" width="20" height="6" fill="#1E2A45"/>

  <!-- Stage indicators -->
  <path d="M100 420 L100 400 L120 400" stroke="#9FB7C8" stroke-width="2" stroke-linecap="round"/>
  <circle cx="125" cy="395" r="4" fill="#9FB7C8"/>
  <circle cx="135" cy="395" r="4" fill="#9FB7C8"/>
  <circle cx="145" cy="395" r="4" fill="#9FB7C8"/>

  <path d="M250 320 L250 300 L270 300" stroke="#9FB7C8" stroke-width="2" stroke-linecap="round"/>
  <circle cx="275" cy="295" r="4" fill="#9FB7C8"/>
  <circle cx="285" cy="295" r="4" fill="#9FB7C8"/>
  <circle cx="295" cy="295" r="4" fill="#9FB7C8"/>

  <path d="M350 220 L350 200 L370 200" stroke="#184A5A" stroke-width="2" stroke-linecap="round"/>
  <circle cx="375" cy="195" r="4" fill="#184A5A"/>
  <circle cx="385" cy="195" r="4" fill="#184A5A"/>
  <circle cx="395" cy="195" r="4" fill="#184A5A"/>

  <path d="M500 170 L500 150 L520 150" stroke="#184A5A" stroke-width="2" stroke-linecap="round"/>
  <circle cx="525" cy="145" r="4" fill="#184A5A"/>
  <circle cx="535" cy="145" r="4" fill="#184A5A"/>
  <circle cx="545" cy="145" r="4" fill="#184A5A"/>

  <path d="M650 220 L650 200 L670 200" stroke="#1E2A45" stroke-width="2" stroke-linecap="round"/>
  <circle cx="675" cy="195" r="4" fill="#1E2A45"/>
  <circle cx="685" cy="195" r="4" fill="#1E2A45"/>
  <circle cx="695" cy="195" r="4" fill="#1E2A45"/>

  <!-- Progress arrows along path -->
  <path d="M170 420 L180 410" stroke="#9FB7C8" stroke-width="2" stroke-linecap="round"/>
  <path d="M180 410 L185 415" stroke="#9FB7C8" stroke-width="2" stroke-linecap="round"/>

  <path d="M300 300 L310 290" stroke="#9FB7C8" stroke-width="2" stroke-linecap="round"/>
  <path d="M310 290 L315 295" stroke="#9FB7C8" stroke-width="2" stroke-linecap="round"/>

  <path d="M425 225 L435 215" stroke="#184A5A" stroke-width="2" stroke-linecap="round"/>
  <path d="M435 215 L440 220" stroke="#184A5A" stroke-width="2" stroke-linecap="round"/>

  <path d="M575 225 L585 235" stroke="#184A5A" stroke-width="2" stroke-linecap="round"/>
  <path d="M585 235 L590 230" stroke="#184A5A" stroke-width="2" stroke-linecap="round"/>

  <!-- Destination star/goal -->
  <path d="M700 180 L705 165 L710 180 L725 180 L713 190 L718 205 L705 195 L692 205 L697 190 L685 180 Z"
        fill="none" stroke="#1E2A45" stroke-width="2" stroke-linejoin="round"/>
</svg>
