<svg width="800" height="600" viewBox="0 0 800 600" fill="none" xmlns="http://www.w3.org/2000/svg">
  <rect width="800" height="600" fill="#FEFBF8"/>
  <path d="M400 300 Q450 300 450 250 Q450 200 400 200 Q350 200 350 250 Q350 300 400 300 Q450 300 450 350 Q450 400 400 400 Q300 400 300 300 Q300 200 400 200 Q500 200 500 300 Q500 450 400 450 Q250 450 250 300 Q250 150 400 150 Q550 150 550 300 Q550 500 400 500"
        stroke="#184A5A" stroke-width="3" fill="none" stroke-linecap="round"/>
  <circle cx="400" cy="300" r="8" fill="#1E2A45"/>
</svg>
